<?xml version="1.0" standalone="no"?>
<!DOCTYPE svg PUBLIC "-//W3C//DTD SVG 20010904//EN"
 "http://www.w3.org/TR/2001/REC-SVG-20010904/DTD/svg10.dtd">
<svg version="1.0" xmlns="http://www.w3.org/2000/svg"
 width="500.000000pt" height="500.000000pt" viewBox="0 0 500.000000 500.000000"
 preserveAspectRatio="xMidYMid meet">
<metadata>
Created by potrace 1.11, written by Peter Selinger 2001-2013
</metadata>
<g transform="translate(0.000000,500.000000) scale(0.100000,-0.100000)"
fill="#000000" stroke="none">
<path d="M473 4980 c-72 -19 -178 -68 -223 -105 -113 -90 -196 -216 -230 -351
-19 -75 -20 -119 -19 -2023 1 -1618 3 -1957 14 -2011 38 -174 169 -343 327
-419 158 -77 1 -72 2186 -68 1076 1 1968 5 1981 9 132 39 219 88 301 167 78
76 135 172 167 281 l22 75 0 1955 c-1 2172 4 2019 -70 2169 -76 154 -215 267
-394 320 -70 21 -73 21 -2030 20 -1885 0 -1963 -1 -2032 -19z"/>
</g>
</svg>
